<svg viewBox="0 0 35 53" fill="none" xmlns="http://www.w3.org/2000/svg">
<g clip-path="url(#clip0_1_52094)">
<path d="M16.2301 52.5C15.3301 52.5 14.5301 51.7 13.8301 50.1V41.1C13.8372 40.8517 13.7867 40.6052 13.6826 40.3796C13.5785 40.1541 13.4236 39.9557 13.2301 39.8C12.8757 39.4748 12.4111 39.2961 11.9301 39.3C9.74729 39.3078 7.6037 38.72 5.73011 37.6C3.87613 36.4469 2.35855 34.8259 1.33011 32.9C0.47564 31.1777 0.0227194 29.284 0.00539905 27.3615C-0.0119213 25.4389 0.406809 23.5374 1.23011 21.8C10.2301 2.5 14.4301 0 17.1301 0C19.8301 0 24.0001 2.5 33.0001 21.9C33.7965 23.512 34.2274 25.28 34.2619 27.0777C34.2965 28.8754 33.9339 30.6585 33.2001 32.3C32.2131 34.4182 30.6547 36.2191 28.7001 37.5C26.731 38.7602 24.4378 39.4203 22.1001 39.4C21.1915 39.382 20.3022 39.1341 19.5153 38.6794C18.7284 38.2248 18.0695 37.5782 17.6001 36.8L10.7001 25.5C10.5528 25.2409 10.4754 24.948 10.4754 24.65C10.4754 24.352 10.5528 24.0591 10.7001 23.8C10.8407 23.5245 11.0558 23.294 11.321 23.1349C11.5863 22.9757 11.8909 22.8943 12.2001 22.9H18.7001L15.8001 17.6C15.6115 17.2729 15.4902 16.9113 15.4435 16.5366C15.3968 16.1618 15.4255 15.7816 15.528 15.4181C15.6305 15.0547 15.8047 14.7154 16.0404 14.4204C16.276 14.1253 16.5683 13.8804 16.9001 13.7C16.9638 13.6541 17.0368 13.6227 17.1139 13.608C17.191 13.5932 17.2704 13.5954 17.3465 13.6144C17.4227 13.6335 17.4937 13.6689 17.5548 13.7182C17.6159 13.7675 17.6655 13.8296 17.7001 13.9L23.1001 23.7C23.2474 23.9591 23.3248 24.252 23.3248 24.55C23.3248 24.848 23.2474 25.1409 23.1001 25.4C22.9585 25.6454 22.7542 25.8487 22.5083 25.9893C22.2623 26.1298 21.9834 26.2025 21.7001 26.2H15.4001L20.7001 34.9C20.8977 35.1991 21.1644 35.4461 21.4778 35.6202C21.7911 35.7943 22.1418 35.8903 22.5001 35.9C24.2002 35.8961 25.8645 35.4107 27.3001 34.5C28.7029 33.5166 29.8096 32.1678 30.5001 30.6C30.9881 29.439 31.2227 28.1873 31.1882 26.9284C31.1537 25.6695 30.8509 24.4325 30.3001 23.3C21.3001 3.9 17.9001 3.3 17.5001 3.3C17.1001 3.3 13.7001 3.8 4.70011 23.2C4.14108 24.386 3.84288 25.6781 3.82563 26.9892C3.80838 28.3002 4.07247 29.5997 4.60011 30.8C5.3347 32.3162 6.47749 33.5975 7.90011 34.5C9.3488 35.3696 11.0106 35.8197 12.7001 35.8C13.392 35.8087 14.0753 35.9546 14.7105 36.2292C15.3456 36.5038 15.9199 36.9018 16.4001 37.4C16.8843 37.8855 17.2664 38.463 17.524 39.0984C17.7816 39.7338 17.9095 40.4144 17.9001 41.1V50.8C17.8875 51.2469 17.7044 51.672 17.3882 51.9881C17.0721 52.3043 16.647 52.4874 16.2001 52.5H16.2301Z" fill="#8CC63F"/>
</g>
<defs>
<clipPath id="clip0_1_52094">
<rect width="35" height="53" fill="white"/>
</clipPath>
</defs>
</svg>
