<svg width="156" height="38" viewBox="0 0 156 38" fill="none" xmlns="http://www.w3.org/2000/svg">
<path d="M35.8069 29.821V27.5048L51.1516 11.0019V10.9295H36.4583V8.32381H55.1326V10.64L39.8095 27.0705V27.1429H55.5886V29.821H35.8069Z" fill="#3D3D3D"/>
<path d="M81.1897 19.0362C81.1955 20.5744 80.9005 22.0989 80.3212 23.5238C79.7938 24.8875 78.9792 26.1218 77.9326 27.1429C76.8695 28.1541 75.6142 28.9417 74.2412 29.459C71.2366 30.6174 67.9086 30.6174 64.904 29.459C63.5442 28.958 62.3094 28.1678 61.285 27.1429C60.2384 26.1218 59.4238 24.8875 58.8964 23.5238C57.7386 20.6191 57.7386 17.3809 58.8964 14.4762C59.4238 13.1125 60.2384 11.8782 61.285 10.8571C62.3094 9.83223 63.5442 9.04196 64.904 8.54095C67.9086 7.38255 71.2366 7.38255 74.2412 8.54095C75.6142 9.05828 76.8695 9.84589 77.9326 10.8571C78.9792 11.8782 79.7938 13.1125 80.3212 14.4762C80.922 15.9201 81.2177 17.4726 81.1897 19.0362ZM69.6088 27.6495C70.798 27.6574 71.9775 27.4362 73.0831 26.9981C74.1069 26.5758 75.0405 25.9616 75.8335 25.1886C76.6097 24.4122 77.2031 23.4726 77.5707 22.4381C78.4382 20.2281 78.4382 17.7719 77.5707 15.5619C77.1482 14.5551 76.5611 13.6256 75.8335 12.8114C75.0536 12.0222 74.1165 11.4057 73.0831 11.0019C70.8233 10.1335 68.3219 10.1335 66.0621 11.0019C65.0383 11.4242 64.1047 12.0384 63.3116 12.8114C62.5355 13.5878 61.9421 14.5274 61.5745 15.5619C60.707 17.7719 60.707 20.2281 61.5745 22.4381C61.997 23.4449 62.5841 24.3744 63.3116 25.1886C64.0916 25.9778 65.0286 26.5943 66.0621 26.9981C67.1981 27.4174 68.3979 27.6378 69.6088 27.6495Z" fill="#3D3D3D"/>
<path d="M102.904 29.821V18.6019C102.904 15.9238 102.18 13.8971 100.805 12.5219C99.2368 11.1954 97.2494 10.4675 95.1954 10.4675C93.1415 10.4675 91.154 11.1954 89.5859 12.5219C88.2107 13.8971 87.4869 15.9238 87.4869 18.6019V29.821H84.5916V18.6019C84.5419 17.0025 84.7873 15.4076 85.3155 13.8971C85.7575 12.6326 86.483 11.486 87.4365 10.545C88.39 9.60409 89.5461 8.89381 90.8164 8.46857C93.6356 7.53028 96.6829 7.53028 99.5021 8.46857C100.736 8.91456 101.869 9.60372 102.832 10.4952C103.808 11.4467 104.551 12.611 105.003 13.8971C105.531 15.4076 105.777 17.0025 105.727 18.6019V29.821H102.904Z" fill="#3D3D3D"/>
<path d="M132.291 19.0362C132.296 20.5744 132.001 22.0989 131.422 23.5238C130.895 24.8875 130.08 26.1218 129.034 27.1429C127.97 28.1541 126.715 28.9417 125.342 29.459C122.338 30.6174 119.01 30.6174 116.005 29.459C114.645 28.958 113.41 28.1678 112.386 27.1429C111.339 26.1218 110.525 24.8875 109.997 23.5238C108.847 20.6163 108.854 17.3782 110.019 14.4762C110.546 13.1125 111.361 11.8782 112.408 10.8571C113.432 9.83223 114.667 9.04196 116.027 8.54095C119.031 7.38255 122.359 7.38255 125.364 8.54095C126.737 9.05828 127.992 9.84589 129.055 10.8571C130.102 11.8782 130.916 13.1125 131.444 14.4762C132.072 15.9113 132.361 17.4714 132.291 19.0362ZM120.71 27.6495C121.899 27.6574 123.078 27.4362 124.184 26.9981C125.208 26.5758 126.141 25.9616 126.934 25.1886C127.711 24.4122 128.304 23.4726 128.672 22.4381C129.539 20.2281 129.539 17.7719 128.672 15.5619C128.249 14.5551 127.662 13.6256 126.934 12.8114C126.155 12.0222 125.217 11.4057 124.184 11.0019C121.924 10.1335 119.423 10.1335 117.163 11.0019C116.139 11.4242 115.206 12.0384 114.413 12.8114C113.636 13.5878 113.043 14.5274 112.675 15.5619C111.808 17.7719 111.808 20.2281 112.675 22.4381C113.098 23.4449 113.685 24.3744 114.413 25.1886C115.193 25.9778 116.13 26.5943 117.163 26.9981C118.299 27.4175 119.499 27.6379 120.71 27.6495Z" fill="#3D3D3D"/>
<path d="M133.232 29.821L142.352 18.8914L133.594 8.32381H137.213L144.451 17.299H144.523L151.761 8.32381H155.308L146.477 18.8914L155.67 29.821H152.051L144.378 20.5562H144.306L136.8 29.821H133.232Z" fill="#3D3D3D"/>
<path d="M11.7475 38C11.096 38 10.517 37.421 10.0103 36.2629V29.7486C10.0154 29.5689 9.97886 29.3904 9.90352 29.2272C9.82818 29.0639 9.71609 28.9203 9.57603 28.8076C9.31949 28.5722 8.98323 28.4429 8.63507 28.4457C7.05513 28.4513 5.50357 28.0259 4.14745 27.2152C2.80552 26.3806 1.70709 25.2073 0.962693 23.8133C0.344218 22.5667 0.0163893 21.1961 0.00385266 19.8045C-0.008684 18.4129 0.294397 17.0366 0.890312 15.779C7.4046 1.80952 10.4446 0 12.3989 0C14.3532 0 17.3715 1.80952 23.8857 15.8514C24.4622 17.0182 24.774 18.2979 24.7991 19.5991C24.8241 20.9003 24.5617 22.1909 24.0305 23.379C23.3161 24.9122 22.1881 26.2157 20.7734 27.1429C19.3481 28.055 17.6883 28.5328 15.9962 28.5181C15.3385 28.505 14.6949 28.3256 14.1253 27.9965C13.5558 27.6674 13.0788 27.1994 12.7391 26.6362L7.74479 18.4571C7.63819 18.2696 7.58214 18.0576 7.58214 17.8419C7.58214 17.6262 7.63819 17.4142 7.74479 17.2267C7.84651 17.0272 8.00224 16.8604 8.19421 16.7452C8.38618 16.6301 8.60666 16.5711 8.8305 16.5752H13.5353L11.4362 12.739C11.2997 12.5023 11.2119 12.2406 11.1781 11.9693C11.1443 11.6981 11.1651 11.4228 11.2393 11.1598C11.3135 10.8967 11.4396 10.6512 11.6101 10.4376C11.7807 10.224 11.9923 10.0467 12.2324 9.91619C12.2785 9.883 12.3313 9.86027 12.3871 9.84957C12.4429 9.83887 12.5004 9.84047 12.5555 9.85425C12.6106 9.86803 12.6621 9.89366 12.7063 9.92936C12.7505 9.96506 12.7864 10.01 12.8115 10.061L16.72 17.1543C16.8266 17.3418 16.8827 17.5538 16.8827 17.7695C16.8827 17.9852 16.8266 18.1972 16.72 18.3848C16.6175 18.5623 16.4697 18.7095 16.2916 18.8113C16.1136 18.913 15.9117 18.9656 15.7067 18.9638H11.1467L14.9829 25.261C15.1259 25.4774 15.319 25.6562 15.5458 25.7822C15.7726 25.9082 16.0264 25.9777 16.2857 25.9848C17.5163 25.9819 18.7209 25.6306 19.76 24.9714C20.7754 24.2596 21.5764 23.2834 22.0762 22.1486C22.4294 21.3083 22.5992 20.4022 22.5742 19.491C22.5493 18.5799 22.3301 17.6845 21.9315 16.8648C15.4172 2.82286 12.9562 2.38857 12.6667 2.38857C12.3772 2.38857 9.91622 2.75048 3.40193 16.7924C2.99729 17.6508 2.78145 18.5861 2.76897 19.535C2.75648 20.484 2.94764 21.4245 3.32955 22.2933C3.86125 23.3908 4.68841 24.3182 5.71812 24.9714C6.76669 25.6009 7.96951 25.9266 9.19241 25.9124C9.69322 25.9187 10.1878 26.0242 10.6475 26.223C11.1072 26.4218 11.5229 26.7099 11.8705 27.0705C12.221 27.4219 12.4975 27.8399 12.684 28.2998C12.8705 28.7597 12.963 29.2523 12.9562 29.7486V36.7695C12.9471 37.093 12.8145 37.4007 12.5857 37.6295C12.3569 37.8583 12.0492 37.9909 11.7257 38H11.7475Z" fill="#8CC63F"/>
</svg>
